<svg width="18" height="18" viewBox="0 0 24 24" preserveAspectRatio="xMidYMid meet" fill="none"
  role="presentation" xmlns="http://www.w3.org/2000/svg" class="theme-icon-qJWp6K">
  <g>
    <path data-follow-fill="currentColor"
      d="M12 1.5a1 1 0 0 1 1 1v2a1 1 0 1 1-2 0v-2a1 1 0 0 1 1-1Zm7.424 3.075a1 1 0 0 1 0 1.415L18.01 7.404a1 1 0 1 1-1.414-1.414l1.414-1.415a1 1 0 0 1 1.414 0ZM21.5 13a1 1 0 0 0 0-2h-2a1 1 0 1 0 0 2h2Zm-2.076 6.424a1 1 0 0 1-1.414 0l-1.414-1.414a1 1 0 1 1 1.414-1.414l1.414 1.414a1 1 0 0 1 0 1.414ZM13 19.5a1 1 0 1 0-2 0v2a1 1 0 1 0 2 0v-2Zm-5.596-2.904a1 1 0 0 1 0 1.415L5.99 19.425a1 1 0 0 1-1.415-1.415l1.415-1.414a1 1 0 0 1 1.414 0ZM4.5 13a1 1 0 1 0 0-2h-2a1 1 0 1 0 0 2h2Zm2.903-5.596a1 1 0 0 1-1.414 0L4.575 5.99a1 1 0 1 1 1.414-1.415L7.403 5.99a1 1 0 0 1 0 1.414ZM8.89 12a3.111 3.111 0 1 1 6.222 0 3.111 3.111 0 0 1-6.222 0ZM12 7.111a4.889 4.889 0 1 0 0 9.778 4.889 4.889 0 0 0 0-9.778Z"
      clip-rule="evenodd" fill-rule="evenodd" fill="currentColor"></path>
  </g>
</svg>