<svg width="1em" height="1em" viewBox="0 0 24 24" preserveAspectRatio="xMidYMid meet" fill="none"
  role="presentation" xmlns="http://www.w3.org/2000/svg" class="">
  <g>
    <path data-follow-fill="currentColor"
      d="m12 4.046-.5.985a14.727 14.727 0 0 1-6.47 6.47L4.047 12l.985.5a14.728 14.728 0 0 1 6.47 6.47l.5.984.499-.985a14.727 14.727 0 0 1 6.47-6.47l.984-.499-.985-.5a14.727 14.727 0 0 1-6.47-6.47l-.5-.983Zm1.338-1.784c-.556-1.095-2.12-1.095-2.676 0l-.945 1.864a12.727 12.727 0 0 1-5.591 5.59l-1.864.946c-1.095.556-1.095 2.12 0 2.676l1.864.945a12.727 12.727 0 0 1 5.59 5.591l.946 1.864c.556 1.095 2.12 1.095 2.676 0l.945-1.864a12.728 12.728 0 0 1 5.591-5.59l1.864-.946c1.095-.556 1.095-2.12 0-2.676l-1.864-.945a12.728 12.728 0 0 1-5.59-5.591l-.946-1.864Z"
      clip-rule="evenodd" fill-rule="evenodd" fill="currentColor"></path>
  </g>
</svg>