<svg width="1em" height="1em" viewBox="0 0 24 24" preserveAspectRatio="xMidYMid meet" fill="none"
  role="presentation" xmlns="http://www.w3.org/2000/svg" class="icon-_WQ9CA">
  <g>
    <path data-follow-fill="currentColor" fill-rule="evenodd" clip-rule="evenodd"
      d="M16.326 4.72H7.674A2.954 2.954 0 0 0 4.72 7.674v8.652c0 .054.001.108.004.162l3.509-3.508a2.954 2.954 0 0 1 4.03-.138l6.262 5.457c.47-.523.755-1.215.755-1.973V7.674a2.954 2.954 0 0 0-2.954-2.954Zm2.798 15.658a4.919 4.919 0 0 0 2.126-4.052V7.674a4.924 4.924 0 0 0-4.924-4.924H7.674A4.924 4.924 0 0 0 2.75 7.674v8.652a4.924 4.924 0 0 0 4.924 4.924h8.652a4.901 4.901 0 0 0 2.798-.872Zm-2.489-1.114-5.666-4.937a.985.985 0 0 0-1.344.046l-4.041 4.04a2.945 2.945 0 0 0 2.09.867h8.652c.104 0 .208-.005.31-.016ZM14.078 8.401a1.532 1.532 0 1 1 3.064 0 1.532 1.532 0 0 1-3.064 0Z"
      fill="currentColor"></path>
  </g>
</svg>