<svg width="1em" height="1em" viewBox="0 0 24 24" preserveAspectRatio="xMidYMid meet" fill="none"
  role="presentation" xmlns="http://www.w3.org/2000/svg" class="">
  <g>
    <path data-follow-fill="currentColor"
      d="M16.393 2.607a5 5 0 0 1 5 5v4.265A6 6 0 0 0 19.6 11.6c-.07 0-.139.002-.207.004V7.607a3 3 0 0 0-3-3H7.607a3 3 0 0 0-3 3v7.728l3.559-3.69a3.161 3.161 0 0 1 4.357-.184l2.536 2.219a5.992 5.992 0 0 0-1.05 1.74l-2.804-2.454a1.161 1.161 0 0 0-1.6.067l-4.628 4.8a2.998 2.998 0 0 0 2.63 1.56h6.265c.23.738.601 1.414 1.08 2H7.606l-.256-.007a5 5 0 0 1-4.634-3.956l-.068-.064.044-.047a5.01 5.01 0 0 1-.079-.67l-.007-.257V7.607a5 5 0 0 1 5-5h8.786Zm-.704 4.23a1.556 1.556 0 1 1 0 3.112 1.556 1.556 0 0 1 0-3.112Z"
      fill="currentColor"></path>
    <path data-follow-fill="currentColor"
      d="M18.96 14.577a.727.727 0 0 1 1.34 0 4.577 4.577 0 0 0 2.395 2.413.737.737 0 0 1 0 1.352 4.577 4.577 0 0 0-2.395 2.413.727.727 0 0 1-1.34 0 4.578 4.578 0 0 0-2.395-2.413.738.738 0 0 1 0-1.352 4.577 4.577 0 0 0 2.394-2.413Z"
      fill="currentColor"></path>
  </g>
</svg>