<svg width="1em" height="1em" viewBox="0 0 24 24" preserveAspectRatio="xMidYMid meet" fill="none"
  role="presentation" xmlns="http://www.w3.org/2000/svg" class="icon-_WQ9CA">
  <g>
    <path data-follow-fill="currentColor" fill-rule="evenodd" clip-rule="evenodd"
      d="M4.92 3.537a4 4 0 0 0-2.83 4.899l2.585 9.645a4 4 0 0 0 4.899 2.829l2.737-.733a3.403 3.403 0 0 1-.874-1.837l-2.381.638a2 2 0 0 1-2.45-1.414L4.023 7.918a2 2 0 0 1 1.414-2.45l3.288-.88a2 2 0 0 1 2.45 1.414l2.318 8.654.553-.246a.683.683 0 0 0 .345-.368l.214-.516a3.56 3.56 0 0 1 .445-.784l-1.944-7.257a4 4 0 0 0-4.899-2.829l-3.287.881ZM21.6 9.766l-.885 3.303a3.332 3.332 0 0 0-1.687-1.433l.64-2.388a1.5 1.5 0 0 0-1.061-1.837l-2.437-.653a1.492 1.492 0 0 0-.659-.026l-.473-1.765c-.01-.039-.022-.077-.034-.115l-.016-.055a3.485 3.485 0 0 1 1.7.03l2.436.652A3.5 3.5 0 0 1 21.6 9.766Zm-3.433 11.127.208-.477a3.68 3.68 0 0 1 1.871-1.899l.64-.285a.447.447 0 0 0 0-.812l-.604-.269a3.682 3.682 0 0 1-1.898-1.961l-.214-.516a.427.427 0 0 0-.794 0l-.213.516a3.681 3.681 0 0 1-1.898 1.961l-.605.27a.447.447 0 0 0 0 .811l.64.285a3.68 3.68 0 0 1 1.872 1.899l.207.477a.427.427 0 0 0 .788 0Z"
      fill="currentColor"></path>
  </g>
</svg>