<svg width="1em" height="1em" viewBox="0 0 24 24" preserveAspectRatio="xMidYMid meet" fill="none"
  role="presentation" xmlns="http://www.w3.org/2000/svg" class="icon-jYPZWN">
  <g>
    <path data-follow-fill="currentColor"
      d="M8.538 3.513a6.077 6.077 0 0 0-6.085 6.07c0 2.819 1.639 5.278 3.37 7.025 1.75 1.764 3.914 3.13 5.588 3.685a1.87 1.87 0 0 0 1.174 0c1.675-.556 3.84-1.92 5.588-3.685 1.732-1.747 3.37-4.206 3.37-7.025a6.077 6.077 0 0 0-6.084-6.07c-1.381 0-2.572.717-3.46 1.432-.889-.715-2.08-1.432-3.461-1.432Zm0 2a4.077 4.077 0 0 0-4.085 4.07c0 2.05 1.215 4.028 2.79 5.617 1.557 1.57 3.436 2.73 4.755 3.18 1.32-.45 3.2-1.61 4.755-3.18 1.575-1.59 2.79-3.568 2.79-5.617 0-2.24-1.82-4.07-4.084-4.07-.929 0-1.877.652-2.78 1.49a1 1 0 0 1-1.36 0c-.904-.838-1.853-1.49-2.781-1.49Z"
      clip-rule="evenodd" fill-rule="evenodd" fill="currentColor"></path>
  </g>
</svg>