<svg width="1em" height="1em" viewBox="0 0 24 24" preserveAspectRatio="xMidYMid meet" fill="none"
  role="presentation" xmlns="http://www.w3.org/2000/svg" class="">
  <g>
    <path data-follow-fill="currentColor"
      d="M4.837 9.65V5.77a1 1 0 0 1 1-1h2.594a1 1 0 0 1 .721.308l1.443-1.386-1.443 1.385 1.11 1.156a3 3 0 0 0 2.164.922h5.737a1 1 0 0 1 1 1V9.65H4.837Zm0 2v5.004a2 2 0 0 0 2 2h10.326a2 2 0 0 0 2-2V11.65H4.837Zm6.868-6.802-1.11-1.156A3 3 0 0 0 8.43 2.77H5.837a3 3 0 0 0-3 3v10.884a4 4 0 0 0 4 4h10.326a4 4 0 0 0 4-4v-8.5a3 3 0 0 0-3-3h-5.737a1 1 0 0 1-.721-.306Z"
      clip-rule="evenodd" fill-rule="evenodd" fill="currentColor"></path>
  </g>
</svg>