<svg width="1em" height="1em" viewBox="0 0 24 24" preserveAspectRatio="xMidYMid meet" fill="none"
  role="presentation" xmlns="http://www.w3.org/2000/svg" class="">
  <g>
    <path data-follow-fill="currentColor"
      d="M6.503 6.005a.6.6 0 0 1 .58.448L9.901 17.25a.6.6 0 0 1-.58.751h-.994a.6.6 0 0 1-.58-.448l-.385-1.472H4.478l-.384 1.472a.6.6 0 0 1-.58.448H2.52a.6.6 0 0 1-.581-.751l2.82-10.797a.6.6 0 0 1 .58-.448h1.164ZM14.321 6a4.081 4.081 0 0 1 0 8.161h-.72v3.24a.6.6 0 0 1-.599.599h-.96a.6.6 0 0 1-.6-.6V6.6a.6.6 0 0 1 .6-.6h2.28Zm7.16-.005c.33 0 .6.27.6.6v10.8a.6.6 0 0 1-.6.6h-.961a.6.6 0 0 1-.6-.6v-10.8a.6.6 0 0 1 .6-.6h.96ZM5.041 13.92h1.757l-.879-3.364-.878 3.364Zm8.56-1.92h.72a1.92 1.92 0 1 0 0-3.839h-.72V12Z"
      fill="currentColor"></path>
  </g>
</svg>