<svg width="1em" height="1em" viewBox="0 0 24 24" preserveAspectRatio="xMidYMid meet" fill="none"
  role="presentation" xmlns="http://www.w3.org/2000/svg" class="">
  <g>
    <path data-follow-fill="currentColor"
      d="M8.5 2A4.5 4.5 0 0 0 4 6.5v11A4.5 4.5 0 0 0 8.5 22h7a4.5 4.5 0 0 0 4.5-4.5v-11A4.5 4.5 0 0 0 15.5 2h-7ZM6 6.5A2.5 2.5 0 0 1 8.5 4h7A2.5 2.5 0 0 1 18 6.5v11a2.5 2.5 0 0 1-2.5 2.5h-7A2.5 2.5 0 0 1 6 17.5v-11ZM12 18a1.444 1.444 0 1 0 0-2.889A1.444 1.444 0 0 0 12 18Z"
      clip-rule="evenodd" fill-rule="evenodd" fill="currentColor"></path>
  </g>
</svg>