<svg width="1em" height="1em" viewBox="0 0 24 24" preserveAspectRatio="xMidYMid meet" fill="none"
  role="presentation" xmlns="http://www.w3.org/2000/svg" class="">
  <g>
    <path data-follow-fill="currentColor"
      d="M2.837 5.77v10.884a4 4 0 0 0 4 4h10.326a4 4 0 0 0 4-4v-8.5a3 3 0 0 0-3-3h-5.737a1 1 0 0 1-.721-.306l-1.11-1.156A3 3 0 0 0 8.43 2.77H5.837a3 3 0 0 0-3 3ZM6 10a1 1 0 1 0 0 2h12a1 1 0 1 0 0-2H6Z"
      clip-rule="evenodd" fill-rule="evenodd" fill="currentColor"></path>
  </g>
</svg>