<svg width="1em" height="1em" viewBox="0 0 24 24" preserveAspectRatio="xMidYMid meet" fill="none"
  role="presentation" xmlns="http://www.w3.org/2000/svg" class="">
  <g>
    <path data-follow-fill="currentColor"
      d="M17.063 2.875c.69 0 1.25.56 1.25 1.25v1.563h1.562a1.25 1.25 0 1 1 0 2.5h-1.563v1.57a1 1 0 0 1-.293.708l-7.553 7.554a1 1 0 0 1-.707.293H8.187v1.562a1.25 1.25 0 1 1-2.5 0v-1.563H4.125a1.25 1.25 0 1 1 0-2.5h1.563V8.189H4.125a1.25 1.25 0 1 1 0-2.5h1.563V4.125a1.25 1.25 0 1 1 2.5 0v1.563h7.624V4.125c0-.69.56-1.25 1.25-1.25Zm-.397 11.395a.427.427 0 0 1 .794 0l.213.515a3.683 3.683 0 0 0 1.898 1.962l.605.269a.448.448 0 0 1 0 .812l-.64.284a3.68 3.68 0 0 0-1.872 1.899l-.208.477a.427.427 0 0 1-.787 0l-.208-.477a3.68 3.68 0 0 0-1.871-1.899l-.64-.284a.448.448 0 0 1 0-.812l.604-.269a3.683 3.683 0 0 0 1.898-1.962l.214-.515Z"
      fill="currentColor"></path>
  </g>
</svg>