<svg width="1em" height="1em" viewBox="0 0 24 24" preserveAspectRatio="xMidYMid meet" fill="none"
  role="presentation" xmlns="http://www.w3.org/2000/svg" class="protocol-icon-LnDsg_">
  <g>
    <path data-follow-fill="currentColor"
      d="M4 6.5A4.5 4.5 0 0 1 8.5 2h7A4.5 4.5 0 0 1 20 6.5v11a4.5 4.5 0 0 1-4.5 4.5h-7A4.5 4.5 0 0 1 4 17.5v-11ZM8.5 4A2.5 2.5 0 0 0 6 6.5v11A2.5 2.5 0 0 0 8.5 20h7a2.5 2.5 0 0 0 2.5-2.5v-11A2.5 2.5 0 0 0 15.5 4h-7ZM9 9.5a1 1 0 0 1 1-1h4a1 1 0 1 1 0 2h-4a1 1 0 0 1-1-1Zm1 4a1 1 0 1 0 0 2h2a1 1 0 1 0 0-2h-2Z"
      clip-rule="evenodd" fill-rule="evenodd" fill="currentColor"></path>
  </g>
</svg>