<svg width="1em" height="1em" viewBox="0 0 24 24" preserveAspectRatio="xMidYMid meet" fill="none"
  role="presentation" xmlns="http://www.w3.org/2000/svg" class="">
  <g>
    <path data-follow-fill="currentColor"
      d="M6.938 3.125a1 1 0 0 1 1 1v1.813h8.125V4.125a1 1 0 1 1 2 0v1.813h1.812a1 1 0 1 1 0 2h-1.813v2.937a1 1 0 1 1-2 0V7.937H7.938v8.125h2.938a1 1 0 1 1 0 2H7.937v1.813a1 1 0 1 1-2 0v-1.813H4.125a1 1 0 1 1 0-2h1.813V7.938H4.125a1 1 0 0 1 0-2h1.813V4.125a1 1 0 0 1 1-1Zm10.518 17.363.208-.477a3.68 3.68 0 0 1 1.871-1.898l.641-.285a.447.447 0 0 0 0-.812l-.605-.27a3.682 3.682 0 0 1-1.898-1.961l-.213-.515a.427.427 0 0 0-.794 0l-.214.515a3.682 3.682 0 0 1-1.898 1.962l-.605.269a.447.447 0 0 0 0 .812l.64.285a3.675 3.675 0 0 1 1.872 1.898l.208.477c.152.35.635.35.787 0Z"
      clip-rule="evenodd" fill-rule="evenodd" fill="currentColor"></path>
  </g>
</svg>