<svg width="1em" height="1em" viewBox="0 0 24 24" preserveAspectRatio="xMidYMid meet" fill="none" role="presentation" xmlns="http://www.w3.org/2000/svg" class="watermark-icon-tF0etP"><g><path data-follow-fill="currentColor" d="M17.611 3.5A4.89 4.89 0 0 1 22.5 8.389v7.222a4.89 4.89 0 0 1-4.889 4.889H6.39a4.889 4.889 0 0 1-4.882-4.638l-.007-.25V8.388A4.89 4.89 0 0 1 6.39 3.499h11.22ZM6.39 5.5A2.889 2.889 0 0 0 3.5 8.389v7.222l.015.295A2.89 2.89 0 0 0 6.389 18.5H17.61a2.889 2.889 0 0 0 2.889-2.889V8.39a2.889 2.889 0 0 0-2.888-2.89H6.39Zm9.772 2.957a.54.54 0 0 1 .538.54v6.007c0 .297-.24.538-.538.538h-.623a.538.538 0 0 1-.538-.538V8.996c0-.297.24-.539.538-.539h.623Zm-5.749.022a.5.5 0 0 1 .453.29l2.862 6.188a.4.4 0 0 1-.364.568h-.971a.3.3 0 0 1-.272-.174l-.521-1.125H8.39l-.52 1.125a.3.3 0 0 1-.271.174h-.972a.4.4 0 0 1-.363-.568l2.86-6.188a.5.5 0 0 1 .453-.29h.836Zm-1.329 4.247h1.822l-.91-1.971-.912 1.97Z" fill="currentColor"></path></g></svg>