<svg width="1em" height="1em" viewBox="0 0 24 24" preserveAspectRatio="xMidYMid meet" fill="none"
  role="presentation" xmlns="http://www.w3.org/2000/svg" class="">
  <g>
    <path data-follow-fill="currentColor"
      d="M10.662 2.262c.556-1.095 2.12-1.095 2.676 0l.945 1.864a12.727 12.727 0 0 0 5.591 5.59l1.864.946c1.095.556 1.095 2.12 0 2.676l-1.864.945a12.727 12.727 0 0 0-5.59 5.591l-.946 1.864c-.556 1.095-2.12 1.095-2.676 0l-.945-1.864a12.727 12.727 0 0 0-5.591-5.59l-1.864-.946c-1.095-.556-1.095-2.12 0-2.676l1.864-.945a12.727 12.727 0 0 0 5.59-5.591l.946-1.864Z"
      fill="currentColor"></path>
  </g>
</svg>