<svg width="1em" height="1em" viewBox="0 0 24 24" preserveAspectRatio="xMidYMid meet" fill="none"
  role="presentation" xmlns="http://www.w3.org/2000/svg" class="menu-icon-FkyOpH">
  <g>
    <path data-follow-fill="currentColor"
      d="M18.176 15.77a.427.427 0 0 1 .794 0l.214.515a3.683 3.683 0 0 0 1.898 1.962l.604.269a.448.448 0 0 1 0 .812l-.64.284a3.68 3.68 0 0 0-1.871 1.899l-.208.477a.427.427 0 0 1-.787 0l-.208-.477a3.68 3.68 0 0 0-1.871-1.899l-.641-.284a.448.448 0 0 1 0-.812l.604-.269a3.683 3.683 0 0 0 1.899-1.962l.213-.515ZM15.5 2a1 1 0 0 1 1 1v.5h1a4 4 0 0 1 4 4V13h-2v-1.5h-15v6a2 2 0 0 0 2 2h6v2h-6a4 4 0 0 1-4-4v-10a4 4 0 0 1 4-4h1V3a1 1 0 0 1 2 0v.5h5V3a1 1 0 0 1 1-1Zm-9 3.5a2 2 0 0 0-2 2v2h15v-2a2 2 0 0 0-2-2h-1V6a1 1 0 1 1-2 0v-.5h-5V6a1 1 0 0 1-2 0v-.5h-1Z"
      fill="currentColor"></path>
  </g>
</svg>