<svg width="18" height="18" viewBox="0 0 24 24" preserveAspectRatio="xMidYMid meet" fill="none"
  role="presentation" xmlns="http://www.w3.org/2000/svg" class="theme-icon-qJWp6K">
  <g>
    <path data-follow-fill="currentColor"
      d="M18.822 12.633a7.5 7.5 0 0 1-9.82-6.96A7.002 7.002 0 0 0 12 19a7 7 0 0 0 6.975-6.402.95.95 0 0 0-.153.035Zm.526-.018h-.002.002Zm-1.145-1.884C19.407 10.34 21 10.734 21 12A9 9 0 1 1 9.064 3.49C10.155 3.113 11 4.345 11 5.5a5.5 5.5 0 0 0 7.203 5.231Z"
      clip-rule="evenodd" fill-rule="evenodd" fill="currentColor"></path>
  </g>
</svg>