<svg width="16" height="16" viewBox="0 0 24 24" preserveAspectRatio="xMidYMid meet" fill="none"
  role="presentation" xmlns="http://www.w3.org/2000/svg" class="">
  <g>
    <path data-follow-fill="currentColor"
      d="M5.707 5.325a3.4 3.4 0 0 1 3.4-3.4h5.787a3.4 3.4 0 0 1 3.4 3.4v13.35a3.4 3.4 0 0 1-3.4 3.4H9.107a3.4 3.4 0 0 1-3.4-3.4V5.325Zm3.4-1.4a1.4 1.4 0 0 0-1.4 1.4v13.35a1.4 1.4 0 0 0 1.4 1.4h5.787a1.4 1.4 0 0 0 1.4-1.4V5.325a1.4 1.4 0 0 0-1.4-1.4H9.107Z"
      clip-rule="evenodd" fill-rule="evenodd" fill="currentColor"></path>
  </g>
</svg>