<svg width="16" height="16" viewBox="0 0 24 24" preserveAspectRatio="xMidYMid meet" fill="none"
  role="presentation" xmlns="http://www.w3.org/2000/svg" class="">
  <g>
    <path data-follow-fill="currentColor"
      d="M17.25 4.75a2 2 0 0 1 2 2v10.5a2 2 0 0 1-2 2H6.75a2 2 0 0 1-2-2V6.75a2 2 0 0 1 2-2h10.5Zm0-2a4 4 0 0 1 4 4v10.5a4 4 0 0 1-4 4H6.75a4 4 0 0 1-4-4V6.75a4 4 0 0 1 4-4h10.5ZM17 8a1 1 0 0 0-1-1h-3a1 1 0 1 0 0 2h2v2a1 1 0 1 0 2 0V8Zm-6 9a1 1 0 1 0 0-2H9v-2a1 1 0 1 0-2 0v3a1 1 0 0 0 1 1h3Z"
      clip-rule="evenodd" fill-rule="evenodd" fill="currentColor"></path>
  </g>
</svg>