<svg width="16" height="16" viewBox="0 0 24 24" preserveAspectRatio="xMidYMid meet" fill="none"
  role="presentation" xmlns="http://www.w3.org/2000/svg" class="">
  <g>
    <path data-follow-fill="currentColor"
      d="M.956 10.095a3.4 3.4 0 0 1 3.4-3.4h15.288a3.4 3.4 0 0 1 3.4 3.4v3.81a3.4 3.4 0 0 1-3.4 3.4H4.356a3.4 3.4 0 0 1-3.4-3.4v-3.81Zm3.4-1.4a1.4 1.4 0 0 0-1.4 1.4v3.81a1.4 1.4 0 0 0 1.4 1.4h15.288a1.4 1.4 0 0 0 1.4-1.4v-3.81a1.4 1.4 0 0 0-1.4-1.4H4.356Z"
      clip-rule="evenodd" fill-rule="evenodd" opacity=".9" fill="currentColor"></path>
  </g>
</svg>