<svg width="16" height="16" viewBox="0 0 24 24" preserveAspectRatio="xMidYMid meet" fill="none"
  role="presentation" xmlns="http://www.w3.org/2000/svg" class="">
  <g>
    <path data-follow-fill="currentColor" fill-rule="evenodd" clip-rule="evenodd"
      d="M1.922 8.693a4.5 4.5 0 0 1 4.5-4.5h11.15a4.5 4.5 0 0 1 4.5 4.5v6.613a4.5 4.5 0 0 1-4.5 4.5H6.422a4.5 4.5 0 0 1-4.5-4.5V8.693Zm4.5-2.5a2.5 2.5 0 0 0-2.5 2.5v6.613a2.5 2.5 0 0 0 2.5 2.5h11.15a2.5 2.5 0 0 0 2.5-2.5V8.693a2.5 2.5 0 0 0-2.5-2.5H6.422Z"
      fill="currentColor"></path>
  </g>
</svg>