<svg width="16" height="16" viewBox="0 0 25 24" preserveAspectRatio="xMidYMid meet" fill="none"
  role="presentation" xmlns="http://www.w3.org/2000/svg" class="">
  <g>
    <path data-follow-fill="currentColor" fill-rule="evenodd" clip-rule="evenodd"
      d="M2.85 9.45a4.5 4.5 0 0 1 4.5-4.5H18.5a4.5 4.5 0 0 1 4.5 4.5v5.1a4.5 4.5 0 0 1-4.5 4.5H7.35a4.5 4.5 0 0 1-4.5-4.5v-5.1Zm4.5-2.5a2.5 2.5 0 0 0-2.5 2.5v5.1a2.5 2.5 0 0 0 2.5 2.5H18.5a2.5 2.5 0 0 0 2.5-2.5v-5.1a2.5 2.5 0 0 0-2.5-2.5H7.35Z"
      fill="currentColor"></path>
  </g>
</svg>