<svg width="16" height="16" viewBox="0 0 25 24" preserveAspectRatio="xMidYMid meet" fill="none"
  role="presentation" xmlns="http://www.w3.org/2000/svg" class="">
  <g>
    <path data-follow-fill="currentColor" fill-rule="evenodd" clip-rule="evenodd"
      d="M5.144 6.425a4.5 4.5 0 0 1 4.5-4.5h6.612a4.5 4.5 0 0 1 4.5 4.5v11.15a4.5 4.5 0 0 1-4.5 4.5H9.644a4.5 4.5 0 0 1-4.5-4.5V6.425Zm4.5-2.5a2.5 2.5 0 0 0-2.5 2.5v11.15a2.5 2.5 0 0 0 2.5 2.5h6.612a2.5 2.5 0 0 0 2.5-2.5V6.425a2.5 2.5 0 0 0-2.5-2.5H9.644Z"
      fill="currentColor"></path>
  </g>
</svg>